<mxfile host="app.diagrams.net" agent="Mozilla/5.0 (Macintosh; Intel Mac OS X 10_15_7) AppleWebKit/537.36 (KHTML, like Gecko) Chrome/129.0.0.0 Safari/537.36" version="24.9.0">
  <diagram name="画布1" id="hS57aKVVcHqMfh8kNHpK">
    <mxGraphModel dx="1026" dy="612" grid="1" gridSize="10" guides="1" tooltips="1" connect="1" arrows="1" fold="1" page="1" pageScale="1" pageWidth="827" pageHeight="1169" math="0" shadow="0">
      <root>
        <mxCell id="0" />
        <mxCell id="1" parent="0" />
        <UserObject label="" tags="Background" id="emn5B8kbmDhV2268OFV1-1">
          <mxCell style="vsdxID=1;fillColor=#FFFFFF;gradientColor=none;shape=stencil(jZFRDsIgEERPs58aYGM9QK33aCwVIkJDqdbbC1mbKiGmfzvDWyaZBaxH1Q4SBBuDdzf51F1QgCcQQlslvQ5xAmwA6955efVush3poU1kmu7ukX6YaY+lDcFepA4kz0ReJk8o/2U/cserfXUkbxbkcbZAogBhDuGW2BVfjEJwFssLsX9DjbYbW4nDWmavjaFbfL/n5UeLDofNGw==);strokeColor=#000000;spacingTop=-3;spacingBottom=-3;spacingLeft=-3;spacingRight=-3;points=[];labelBackgroundColor=none;rounded=0;html=1;whiteSpace=wrap;" vertex="1" parent="1">
            <mxGeometry x="247" y="187" width="399" height="240" as="geometry" />
          </mxCell>
        </UserObject>
        <UserObject label="" tags="Background" id="emn5B8kbmDhV2268OFV1-2">
          <mxCell style="vsdxID=2;fillColor=#FFFFFF;gradientColor=none;shape=stencil(jZFRDsIgEERPs58aYGM9QK33aCwVIkJDqdbbC1mbKiGmfzvDWyaZBaxH1Q4SBBuDdzf51F1QgCcQQlslvQ5xAmwA6955efVush3poU1kmu7ukX6YaY+lDcFepA4kz0ReJk8o/2U/cserfXUkbxbkcbZAogBhDuGW2BVfjEJwFssLsX9DjbYbW4nDWmavjaFbfL/n5UeLDofNGw==);strokeColor=#000000;spacingTop=-3;spacingBottom=-3;spacingLeft=-3;spacingRight=-3;points=[];labelBackgroundColor=none;rounded=0;html=1;whiteSpace=wrap;" vertex="1" parent="1">
            <mxGeometry x="295" y="240" width="297" height="187" as="geometry" />
          </mxCell>
        </UserObject>
        <UserObject label="" tags="Background" id="emn5B8kbmDhV2268OFV1-3">
          <mxCell style="vsdxID=3;fillColor=#FFFFFF;gradientColor=none;shape=stencil(jZFRDsIgEERPs58aYGM9QK33aCwVIkJDqdbbC1mbKiGmfzvDWyaZBaxH1Q4SBBuDdzf51F1QgCcQQlslvQ5xAmwA6955efVush3poU1kmu7ukX6YaY+lDcFepA4kz0ReJk8o/2U/cserfXUkbxbkcbZAogBhDuGW2BVfjEJwFssLsX9DjbYbW4nDWmavjaFbfL/n5UeLDofNGw==);strokeColor=#000000;spacingTop=-3;spacingBottom=-3;spacingLeft=-3;spacingRight=-3;points=[];labelBackgroundColor=none;rounded=0;html=1;whiteSpace=wrap;" vertex="1" parent="1">
            <mxGeometry x="336" y="291" width="221" height="136" as="geometry" />
          </mxCell>
        </UserObject>
        <UserObject label="&lt;div style=&quot;font-size: 1px&quot;&gt;&lt;p style=&quot;text-align:center;margin-left:0;margin-right:0;margin-top:0px;margin-bottom:0px;text-indent:0;vertical-align:middle;direction:ltr;&quot;&gt;&lt;font style=&quot;font-size:12px;font-family:0;color:#000000;direction:ltr;letter-spacing:0px;line-height:120%;opacity:1&quot;&gt;变更控制系统&lt;/font&gt;&lt;/p&gt;&lt;/div&gt;" tags="Background" id="emn5B8kbmDhV2268OFV1-4">
          <mxCell style="verticalAlign=middle;align=center;overflow=width;vsdxID=4;fillColor=#FFFFFF;gradientColor=none;shape=stencil(jZFRDsIgEERPs58aYGM9QK33aCwVIkJDqdbbC1mbKiGmfzvDWyaZBaxH1Q4SBBuDdzf51F1QgCcQQlslvQ5xAmwA6955efVush3poU1kmu7ukX6YaY+lDcFepA4kz0ReJk8o/2U/cserfXUkbxbkcbZAogBhDuGW2BVfjEJwFssLsX9DjbYbW4nDWmavjaFbfL/n5UeLDofNGw==);strokeColor=#000000;spacingTop=-3;spacingBottom=-3;spacingLeft=-3;spacingRight=-3;points=[];labelBackgroundColor=none;rounded=0;html=1;whiteSpace=wrap;" vertex="1" parent="1">
            <mxGeometry x="393" y="341" width="107" height="86" as="geometry" />
          </mxCell>
        </UserObject>
        <UserObject label="&lt;div style=&quot;font-size: 1px&quot;&gt;&lt;p style=&quot;text-align:center;margin-left:0;margin-right:0;margin-top:0px;margin-bottom:0px;text-indent:0;vertical-align:middle;direction:ltr;&quot;&gt;&lt;font style=&quot;font-size:12px;font-family:0;color:#000000;direction:ltr;letter-spacing:0px;line-height:120%;opacity:1&quot;&gt;配置管理系统&lt;/font&gt;&lt;/p&gt;&lt;/div&gt;" tags="Background" id="emn5B8kbmDhV2268OFV1-5">
          <mxCell style="verticalAlign=middle;align=center;overflow=width;vsdxID=5;fillColor=none;gradientColor=none;shape=stencil(nZBLDoAgDAVP0z3SIyjeg0SURgWD+Lu9EGL8xBW7N828Ji1gOWs5KeBs9s72aqPGa8AKOCejlSMfEqAALFvrVOfsYprEk4xmTKNd44Y99VhscHY8qU7iQOYhFixbvfhXzlZfYgj3hQG+54dReh2KEw==);strokeColor=none;strokeWidth=0;spacingTop=-3;spacingBottom=-3;spacingLeft=-3;spacingRight=-3;points=[];labelBackgroundColor=none;rounded=0;html=1;whiteSpace=wrap;" vertex="1" parent="1">
            <mxGeometry x="363" y="297" width="160" height="40" as="geometry" />
          </mxCell>
        </UserObject>
        <UserObject label="&lt;div style=&quot;font-size: 1px&quot;&gt;&lt;p style=&quot;text-align:center;margin-left:0;margin-right:0;margin-top:0px;margin-bottom:0px;text-indent:0;vertical-align:middle;direction:ltr;&quot;&gt;&lt;font style=&quot;font-size:12px;font-family:0;color:#000000;direction:ltr;letter-spacing:0px;line-height:120%;opacity:1&quot;&gt;项目管理信息系统&lt;/font&gt;&lt;/p&gt;&lt;/div&gt;" tags="Background" id="emn5B8kbmDhV2268OFV1-6">
          <mxCell style="verticalAlign=middle;align=center;overflow=width;vsdxID=6;fillColor=none;gradientColor=none;shape=stencil(nZBLDoAgDAVP0z3SIyjeg0SURgWD+Lu9EGL8xBW7N828Ji1gOWs5KeBs9s72aqPGa8AKOCejlSMfEqAALFvrVOfsYprEk4xmTKNd44Y99VhscHY8qU7iQOYhFixbvfhXzlZfYgj3hQG+54dReh2KEw==);strokeColor=none;strokeWidth=0;spacingTop=-3;spacingBottom=-3;spacingLeft=-3;spacingRight=-3;points=[];labelBackgroundColor=none;rounded=0;html=1;whiteSpace=wrap;" vertex="1" parent="1">
            <mxGeometry x="363" y="240" width="160" height="40" as="geometry" />
          </mxCell>
        </UserObject>
        <UserObject label="&lt;div style=&quot;font-size: 1px&quot;&gt;&lt;p style=&quot;text-align:center;margin-left:0;margin-right:0;margin-top:0px;margin-bottom:0px;text-indent:0;vertical-align:middle;direction:ltr;&quot;&gt;&lt;font style=&quot;font-size:12px;font-family:0;color:#000000;direction:ltr;letter-spacing:0px;line-height:120%;opacity:1&quot;&gt;项目管理系统&lt;/font&gt;&lt;/p&gt;&lt;/div&gt;" tags="Background" id="emn5B8kbmDhV2268OFV1-7">
          <mxCell style="verticalAlign=middle;align=center;overflow=width;vsdxID=7;fillColor=none;gradientColor=none;shape=stencil(nZBLDoAgDAVP0z3SIyjeg0SURgWD+Lu9EGL8xBW7N828Ji1gOWs5KeBs9s72aqPGa8AKOCejlSMfEqAALFvrVOfsYprEk4xmTKNd44Y99VhscHY8qU7iQOYhFixbvfhXzlZfYgj3hQG+54dReh2KEw==);strokeColor=none;strokeWidth=0;spacingTop=-3;spacingBottom=-3;spacingLeft=-3;spacingRight=-3;points=[];labelBackgroundColor=none;rounded=0;html=1;whiteSpace=wrap;" vertex="1" parent="1">
            <mxGeometry x="366" y="196" width="160" height="40" as="geometry" />
          </mxCell>
        </UserObject>
        <UserObject label="&lt;div style=&quot;font-size: 1px&quot;&gt;&lt;p style=&quot;text-align:center;margin-left:0;margin-right:0;margin-top:0px;margin-bottom:0px;text-indent:0;vertical-align:middle;direction:ltr;&quot;&gt;&lt;font style=&quot;font-size:12px;font-family:0;color:#000000;direction:ltr;letter-spacing:0px;line-height:120%;opacity:1&quot;&gt;规划化、标准化平台，至少三项目录&lt;/font&gt;&lt;/p&gt;&lt;/div&gt;" tags="Background" id="emn5B8kbmDhV2268OFV1-8">
          <mxCell style="verticalAlign=middle;align=center;overflow=width;vsdxID=8;fillColor=none;gradientColor=none;shape=stencil(nZBLDoAgDAVP0z3SIyjeg0SURgWD+Lu9EGL8xBW7N828Ji1gOWs5KeBs9s72aqPGa8AKOCejlSMfEqAALFvrVOfsYprEk4xmTKNd44Y99VhscHY8qU7iQOYhFixbvfhXzlZfYgj3hQG+54dReh2KEw==);strokeColor=none;strokeWidth=0;spacingTop=-3;spacingBottom=-3;spacingLeft=-3;spacingRight=-3;points=[];labelBackgroundColor=none;rounded=0;html=1;whiteSpace=wrap;" vertex="1" parent="1">
            <mxGeometry x="634" y="150" width="160" height="40" as="geometry" />
          </mxCell>
        </UserObject>
        <mxCell id="emn5B8kbmDhV2268OFV1-9" vertex="1" parent="1">
          <mxGeometry x="716" y="191" as="geometry" />
        </mxCell>
        <UserObject label="" tags="Background" id="emn5B8kbmDhV2268OFV1-10">
          <mxCell style="vsdxID=9;edgeStyle=none;startArrow=none;endArrow=block;startSize=5;endSize=5;strokeWidth=2;spacingTop=0;spacingBottom=0;spacingLeft=0;spacingRight=0;verticalAlign=middle;html=1;labelBackgroundColor=#ffffff;rounded=0;exitX=1;exitY=0.5;exitDx=0;exitDy=0;exitPerimeter=0;" edge="1" parent="1" source="emn5B8kbmDhV2268OFV1-3" target="emn5B8kbmDhV2268OFV1-9">
            <mxGeometry relative="1" as="geometry">
              <mxPoint x="-159" y="-62" as="offset" />
              <Array as="points">
                <mxPoint x="716" y="359" />
              </Array>
            </mxGeometry>
          </mxCell>
        </UserObject>
      </root>
    </mxGraphModel>
  </diagram>
</mxfile>
